Coordinates
version=1
nRows=32
nColumns=22
inDegrees=yes

Units are S.I. units (second, meters, Newtons, ...)
If the header above contains a line with 'inDegrees', this indicates whether rotational values are in degrees (yes) or radians (no).

endheader
time	pelvis_tilt	pelvis_list	pelvis_rotation	pelvis_tx	pelvis_ty	pelvis_tz	hip_flexion_r	hip_adduction_r	hip_rotation_r	knee_angle_r	ankle_angle_r	subtalar_angle_r	hip_flexion_l	hip_adduction_l	hip_rotation_l	knee_angle_l	ankle_angle_l	subtalar_angle_l	lumbar_extension	lumbar_bending	lumbar_rotation
      1.39000000	     -3.78512885	     -1.85874761	      0.64546241	     -1.58899025	      1.00359302	      0.04240602	      0.63038851	      5.88581386	     -3.87530494	    -14.39530031	     13.47984492	     -1.42632243	     26.87990768	    -10.76093251	     -9.98887070	    -43.67807897	     10.66782776	      1.31964002	     -6.63994198	     -1.08141821	      0.53770563
      1.40000000	     -3.79509991	     -1.74691445	      0.57710763	     -1.58611934	      1.00340228	      0.04297656	      0.39691929	      5.78340484	     -3.84475255	    -14.28124348	     13.60473481	     -1.24973107	     27.32663693	    -10.51391736	    -10.16846471	    -42.64069696	     10.45185606	      1.61024177	     -6.72510009	     -1.23521977	      0.71955527
      1.41000000	     -3.77575657	     -1.66017041	      0.51716426	     -1.58312259	      1.00316349	      0.04345932	      0.12083890	      5.70378626	     -3.79185614	    -14.16202085	     13.77260379	     -1.01755654	     27.69983042	    -10.27250926	    -10.32475233	    -41.47190490	     10.23646998	      2.02460434	     -6.84636672	     -1.35022307	      0.87550367
      1.42000000	     -3.76734318	     -1.59733579	      0.45263411	     -1.58003757	      1.00281753	      0.04390155	     -0.12496956	      5.64538076	     -3.77079795	    -14.08751381	     13.92999326	     -0.85313724	     28.04844269	    -10.04595125	    -10.47833136	    -40.19199250	      9.91793340	      2.40761165	     -6.95851098	     -1.44260250	      1.04641550
      1.43000000	     -3.72833029	     -1.55670073	      0.39325722	     -1.57682190	      1.00242206	      0.04427698	     -0.41388481	      5.60963905	     -3.71907736	    -14.01074612	     14.12499556	     -0.65368903	     28.32340449	     -9.82564663	    -10.61106092	    -38.81203657	      9.58683875	      2.89144859	     -7.10581444	     -1.50657164	      1.19726238
      1.44000000	     -3.69831766	     -1.53076987	      0.32998062	     -1.57348546	      1.00191918	      0.04459607	     -0.68139410	      5.58351251	     -3.71170143	    -13.96790097	     14.31669114	     -0.50099961	     28.57410688	     -9.61946768	    -10.77476098	    -37.35886029	      9.15219718	      3.33393300	     -7.23864349	     -1.55400246	      1.35648402
      1.45000000	     -3.63781377	     -1.53001264	      0.27492680	     -1.57002820	      1.00136453	      0.04483891	     -0.98792694	      5.58400040	     -3.66735842	    -13.93006630	     14.54054655	     -0.31850534	     28.76085705	     -9.42181095	    -10.91250904	    -35.84392828	      8.69308237	      3.84475412	     -7.40661428	     -1.56758161	      1.49205155
      1.46000000	     -3.60024565	     -1.52524415	      0.22041108	     -1.56643229	      1.00068861	      0.04499775	     -1.25941857	      5.57197027	     -3.67634541	    -13.92654676	     14.76456207	     -0.18697485	     28.93727891	     -9.21567692	    -11.08427833	    -34.27950502	      8.14310887	      4.27793947	     -7.53774921	     -1.58306185	      1.63037097
      1.47000000	     -3.52452706	     -1.54492557	      0.17739530	     -1.56271543	      0.99997920	      0.04507539	     -1.57648102	      5.58571262	     -3.65177397	    -13.93181665	     15.02497618	     -0.00816336	     29.04573221	     -9.01621840	    -11.21856419	    -32.68095491	      7.59371093	      4.78600882	     -7.71080546	     -1.56659370	      1.74046083
      1.48000000	     -3.49255194	     -1.55042246	      0.14414694	     -1.55886518	      0.99912439	      0.04504609	     -1.83431194	      5.57571550	     -3.68725985	    -13.97444402	     15.28285139	      0.09846743	     29.17093687	     -8.78774705	    -11.35332669	    -31.05652873	      6.98881463	      5.17397071	     -7.82072911	     -1.56391102	      1.84353250
      1.49000000	     -3.42451148	     -1.55953844	      0.11915210	     -1.55489883	      0.99824951	      0.04491090	     -2.12486428	      5.56533811	     -3.70077249	    -14.04642157	     15.57494089	      0.24090752	     29.22338850	     -8.54143238	    -11.43780135	    -29.40558150	      6.43769289	      5.60126476	     -7.97025195	     -1.54787905	      1.91429063
      1.50000000	     -3.38491089	     -1.57092302	      0.11173687	     -1.55077503	      0.99725939	      0.04469518	     -2.39193627	      5.55429260	     -3.75670916	    -14.12092009	     15.87192561	      0.34746753	     29.28458015	     -8.28406611	    -11.49383725	    -27.75741156	      5.89669041	      5.94752202	     -8.07144615	     -1.53285057	      1.97132793
      1.51000000	     -3.33423425	     -1.57639707	      0.11110497	     -1.54652819	      0.99622197	      0.04438094	     -2.66221849	      5.53210665	     -3.80920120	    -14.22877418	     16.18575027	      0.45449819	     29.30190242	     -8.00400385	    -11.49863308	    -26.10183896	      5.44512012	      6.24298737	     -8.18088221	     -1.51783848	      1.99758595
      1.52000000	     -3.30459472	     -1.58500465	      0.12133975	     -1.54211544	      0.99509278	      0.04400299	     -2.91458262	      5.51198732	     -3.88035300	    -14.34827428	     16.50262415	      0.52857811	     29.31806153	     -7.71807692	    -11.46321415	    -24.46143668	      5.06585323	      6.43808815	     -8.25223630	     -1.50404518	      2.01143433
      1.53000000	     -3.26443105	     -1.58252168	      0.13308910	     -1.53754710	      0.99392902	      0.04355615	     -3.17671060	      5.47663209	     -3.95297541	    -14.49080687	     16.82553804	      0.60203163	     29.29185178	     -7.41703644	    -11.39977124	    -22.83492846	      4.80224737	      6.55412122	     -8.32900859	     -1.50328055	      2.00809797
      1.54000000	     -3.25805329	     -1.58323878	      0.15004742	     -1.53283662	      0.99266472	      0.04307492	     -3.40623134	      5.44821637	     -4.00042311	    -14.64646078	     17.15199524	      0.63060305	     29.28647602	     -7.11996731	    -11.30563570	    -21.24954823	      4.60300725	      6.60279392	     -8.35794955	     -1.50572468	      1.97565082
      1.55000000	     -3.20930962	     -1.55700426	      0.15423025	     -1.52791692	      0.99143913	      0.04253415	     -3.68597818	      5.38106400	     -4.10255352	    -14.81468626	     17.46928912	      0.68576346	     29.19640620	     -6.80800618	    -11.24789529	    -19.69043256	      4.52644244	      6.59205203	     -8.42850533	     -1.54259243	      1.97192208
      1.56000000	     -3.21091369	     -1.53440946	      0.15963123	     -1.52286111	      0.99009545	      0.04199486	     -3.91522363	      5.32551062	     -4.14908546	    -14.99729274	     17.79699960	      0.68883154	     29.15229883	     -6.50972862	    -11.17696584	    -18.20030723	      4.49261524	      6.58668018	     -8.43523144	     -1.58741064	      1.93146267
      1.57000000	     -3.18486031	     -1.49343603	      0.14178371	     -1.51760879	      0.98878316	      0.04143442	     -4.18187372	      5.24288102	     -4.22546164	    -15.18467645	     18.09860488	      0.70398234	     29.04620644	     -6.21306349	    -11.14992509	    -16.76221110	      4.54325533	      6.57278567	     -8.46849804	     -1.66170024	      1.93032478
      1.58000000	     -3.18626573	     -1.43906061	      0.11317798	     -1.51218867	      0.98740819	      0.04087820	     -4.42766651	      5.14784829	     -4.27112367	    -15.37915977	     18.41221099	      0.69547550	     28.95086044	     -5.91876267	    -11.12733612	    -15.39933847	      4.63260893	      6.58507406	     -8.46515121	     -1.76262048	      1.91450208
      1.59000000	     -3.19059419	     -1.37376489	      0.06357495	     -1.50658320	      0.98602091	      0.04032450	     -4.68277808	      5.03788600	     -4.30507234	    -15.57027093	     18.70981934	      0.68660558	     28.83479782	     -5.63395704	    -11.11304404	    -14.11864358	      4.76642966	      6.60896633	     -8.45352179	     -1.88733030	      1.91377931
      1.60000000	     -3.19255493	     -1.29386341	     -0.01204841	     -1.50078795	      0.98464097	      0.03976567	     -4.95841496	      4.90671874	     -4.33172061	    -15.74745964	     18.98484423	      0.68982634	     28.68711310	     -5.35457040	    -11.08810467	    -12.92140992	      4.92431019	      6.63106268	     -8.44136708	     -2.03783734	      1.93701994
      1.61000000	     -3.23261313	     -1.21309315	     -0.10649414	     -1.49483638	      0.98319698	      0.03922774	     -5.20252770	      4.77531744	     -4.30841522	    -15.92899565	     19.26971965	      0.68095279	     28.56427419	     -5.09424758	    -10.99926393	    -11.83598074	      5.07433835	      6.63295138	     -8.38020403	     -2.20179946	      1.95037970
      1.62000000	     -3.26755488	     -1.12250435	     -0.22867794	     -1.48868192	      0.98178659	      0.03869033	     -5.47451186	      4.62492546	     -4.28455939	    -16.08631764	     19.51368327	      0.69674011	     28.40832415	     -4.84958572	    -10.86952952	    -10.86167489	      5.20868281	      6.58530889	     -8.31736213	     -2.38930927	      2.00064820
      1.63000000	     -3.31500847	     -1.03838292	     -0.37500734	     -1.48234248	      0.98038774	      0.03815426	     -5.75117269	      4.47521921	     -4.23772752	    -16.22881685	     19.71714990	      0.73714820	     28.25338991	     -4.63824527	    -10.67818127	    -10.03403490	      5.31054957	      6.46103083	     -8.23252509	     -2.58105276	      2.07143737
      1.64000000	     -3.37417415	     -0.96088808	     -0.54123258	     -1.47582317	      0.97901760	      0.03759984	     -6.03148415	      4.32454054	     -4.16374194	    -16.35972352	     19.86827972	      0.81482030	     28.10722993	     -4.46136124	    -10.43609713	     -9.37698065	      5.36585165	      6.22724086	     -8.12818594	     -2.77334809	      2.16070713
      1.65000000	     -3.44815571	     -0.89070773	     -0.73605001	     -1.46913345	      0.97769620	      0.03706152	     -6.30718097	      4.17357300	     -4.05064385	    -16.48628239	     19.97178105	      0.94008348	     27.97776581	     -4.32648834	    -10.15916613	     -8.90752162	      5.33614851	      5.86104295	     -8.00251411	     -2.96802577	      2.25058629
      1.66000000	     -3.54323196	     -0.83435956	     -0.94939644	     -1.46227555	      0.97644024	      0.03650823	     -6.57066401	      4.02944529	     -3.88959707	    -16.61005126	     20.01073585	      1.10804716	     27.88172091	     -4.23528227	     -9.87242450	     -8.64113818	      5.20112678	      5.40533592	     -7.84946933	     -3.15523158	      2.35559875
      1.67000000	     -3.64788666	     -0.77791169	     -1.18360962	     -1.45523147	      0.97530598	      0.03594080	     -6.83582609	      3.87466562	     -3.68453817	    -16.72654126	     19.97385203	      1.33329627	     27.80543526	     -4.17377567	     -9.62398105	     -8.57261805	      4.92281609	      4.84920334	     -7.68075590	     -3.34944284	      2.47345102
      1.68000000	     -3.75308438	     -0.71713523	     -1.43812993	     -1.44801641	      0.97434285	      0.03534978	     -7.10078975	      3.70234578	     -3.43807393	    -16.85392880	     19.85548945	      1.62293110	     27.73850239	     -4.13375726	     -9.44740490	     -8.68388338	      4.46454921	      4.18339728	     -7.51154480	     -3.55402270	      2.60760354
      1.69000000	     -3.86377438	     -0.63982266	     -1.69056858	     -1.44057067	      0.97358235	      0.03469864	     -7.38197758	      3.50184371	     -3.17497187	    -16.95119597	     19.62734916	      1.99032068	     27.67925277	     -4.08847320	     -9.35709487	     -8.94075507	      3.82638482	      3.37997228	     -7.32674492	     -3.78178325	      2.74205172
      1.70000000	     -3.96937709	     -0.53744676	     -1.95687957	     -1.43296814	      0.97307125	      0.03400749	     -7.65682656	      3.26266070	     -2.86064958	    -17.07448409	     19.30886820	      2.41946321	     27.61898428	     -4.03569095	     -9.41592641	     -9.31498318	      2.98764746	      2.49890367	     -7.15234499	     -4.04111702	      2.88068531
